<svg viewBox="0 0 48 48" fill="none" xmlns="http://www.w3.org/2000/svg">
<path d="M24 35.4544L34.26 41.7637C34.5262 41.9253 34.8343 42.0044 35.1454 41.9909C35.4565 41.9774 35.7567 41.872 36.0079 41.688C36.2592 41.504 36.4502 41.2497 36.5569 40.9571C36.6636 40.6645 36.6812 40.3469 36.6075 40.0444L33.8175 28.2712L42.9487 20.3962C43.1815 20.1918 43.3494 19.9237 43.4315 19.6249C43.5137 19.3262 43.5066 19.01 43.4111 18.7152C43.3156 18.4205 43.1358 18.1602 42.894 17.9664C42.6523 17.7727 42.3591 17.654 42.0506 17.625L30.0675 16.65L25.4512 5.47498C25.3335 5.18668 25.1326 4.93996 24.8742 4.7663C24.6157 4.59263 24.3114 4.49988 24 4.49988C23.6886 4.49988 23.3842 4.59263 23.1258 4.7663C22.8673 4.93996 22.6664 5.18668 22.5487 5.47498L17.9325 16.65L5.94934 17.625C5.63877 17.6523 5.34313 17.7704 5.09934 17.9648C4.85556 18.1591 4.67444 18.4209 4.57862 18.7176C4.48279 19.0143 4.47652 19.3326 4.56057 19.6328C4.64462 19.933 4.81528 20.2018 5.05121 20.4056L14.1825 28.2806L11.3925 40.0444C11.3187 40.3469 11.3363 40.6645 11.443 40.9571C11.5497 41.2497 11.7408 41.504 11.992 41.688C12.2432 41.872 12.5434 41.9774 12.8545 41.9909C13.1656 42.0044 13.4738 41.9253 13.74 41.7637L24 35.4544Z" stroke="currentColor" stroke-width="1.5" stroke-linecap="round" stroke-linejoin="round"/>
</svg>
