<svg viewBox="0 0 48 48" fill="none" xmlns="http://www.w3.org/2000/svg">
<path d="M36 22.5C37.7467 22.4987 39.4697 22.9047 41.032 23.6859C42.5944 24.4671 43.953 25.6018 45 27" stroke="currentColor" stroke-width="1.5" stroke-linecap="round" stroke-linejoin="round"/>
<path d="M3 27C4.04699 25.6018 5.40562 24.4671 6.96795 23.6859C8.53029 22.9047 10.2533 22.4987 12 22.5" stroke="currentColor" stroke-width="1.5" stroke-linecap="round" stroke-linejoin="round"/>
<path d="M24 34.5C28.1421 34.5 31.5 31.1421 31.5 27C31.5 22.8579 28.1421 19.5 24 19.5C19.8579 19.5 16.5 22.8579 16.5 27C16.5 31.1421 19.8579 34.5 24 34.5Z" stroke="currentColor" stroke-width="1.5" stroke-linecap="round" stroke-linejoin="round"/>
<path d="M13.5 40.5C14.5768 38.6727 16.1118 37.1581 17.9533 36.1058C19.7948 35.0535 21.879 34.5 24 34.5C26.121 34.5 28.2052 35.0535 30.0467 36.1058C31.8882 37.1581 33.4232 38.6727 34.5 40.5" stroke="currentColor" stroke-width="1.5" stroke-linecap="round" stroke-linejoin="round"/>
<path d="M30.1875 15C30.468 13.9136 31.0476 12.9275 31.8603 12.1539C32.6731 11.3803 33.6865 10.8502 34.7855 10.6236C35.8844 10.397 37.0249 10.4832 38.0774 10.8722C39.1298 11.2613 40.0521 11.9377 40.7395 12.8246C41.4268 13.7115 41.8517 14.7734 41.9658 15.8896C42.08 17.0059 41.8789 18.1317 41.3852 19.1394C40.8916 20.1471 40.1254 20.9962 39.1734 21.5902C38.2215 22.1842 37.1221 22.4994 36 22.5" stroke="currentColor" stroke-width="1.5" stroke-linecap="round" stroke-linejoin="round"/>
<path d="M12 22.5C10.878 22.4994 9.77853 22.1842 8.8266 21.5902C7.87467 20.9962 7.10839 20.1471 6.61478 19.1394C6.12118 18.1317 5.92003 17.0059 6.03418 15.8896C6.14834 14.7734 6.57321 13.7115 7.26056 12.8246C7.94791 11.9377 8.87019 11.2613 9.92266 10.8722C10.9751 10.4832 12.1156 10.397 13.2146 10.6236C14.3135 10.8502 15.3269 11.3803 16.1397 12.1539C16.9525 12.9275 17.532 13.9136 17.8125 15" stroke="currentColor" stroke-width="1.5" stroke-linecap="round" stroke-linejoin="round"/>
</svg>
